<!DOCTYPE svg PUBLIC "-//W3C//DTD SVG 1.1//EN" "http://www.w3.org/Graphics/SVG/1.1/DTD/svg11.dtd">
<!-- Uploaded to: SVG Repo, www.svgrepo.com, Transformed by: SVG Repo Mixer Tools -->
<svg fill="#8d734b" height="800px" width="800px" version="1.1" id="Layer_1" xmlns="http://www.w3.org/2000/svg" xmlns:xlink="http://www.w3.org/1999/xlink" viewBox="0 0 512 512" xml:space="preserve">
<g id="SVGRepo_bgCarrier" stroke-width="0"/>
<g id="SVGRepo_tracerCarrier" stroke-linecap="round" stroke-linejoin="round"/>
<g id="SVGRepo_iconCarrier"> <g> <g> <path d="M164.15,136.347c-11.082-11.081-25.813-17.183-41.484-17.183s-30.402,6.102-41.484,17.183 c-22.874,22.874-22.874,60.093,0,82.966l41.484,41.484l41.484-41.484C187.024,196.439,187.024,159.22,164.15,136.347z M141.523,196.687l-18.857,18.855l-18.857-18.857c-10.397-10.398-10.397-27.314,0-37.712c5.037-5.037,11.733-7.81,18.857-7.81 c7.123,0,13.82,2.774,18.857,7.81C151.92,169.372,151.92,186.288,141.523,196.687z"/> </g> </g> <g> <g> <path d="M122.667,55.164C55.028,55.164,0,110.192,0,177.83v279.006h245.333V177.83C245.333,110.192,190.305,55.164,122.667,55.164 z M213.333,424.836H32v-32h181.333V424.836z M213.333,360.836H32v-32h181.333V360.836z M213.333,296.836H32V177.83 c0-49.994,40.673-90.667,90.667-90.667s90.667,40.673,90.667,90.667V296.836z"/> </g> </g> <g> <g> <path d="M458.667,277.388v-33.885H277.333v213.333h181.333v-44.552C489.206,405.041,512,377.56,512,344.836 S489.206,284.633,458.667,277.388z M426.667,424.836H309.333V275.503h117.333V424.836z M458.667,378.56v-67.447 C471.268,317.116,480,329.974,480,344.836C480,359.699,471.268,372.557,458.667,378.56z"/> </g> </g> </g>
</svg>