<!DOCTYPE svg PUBLIC "-//W3C//DTD SVG 1.1//EN" "http://www.w3.org/Graphics/SVG/1.1/DTD/svg11.dtd">
<!-- Uploaded to: SVG Repo, www.svgrepo.com, Transformed by: SVG Repo Mixer Tools -->
<svg fill="#8d734b" height="800px" width="800px" version="1.1" id="Layer_1" xmlns="http://www.w3.org/2000/svg" xmlns:xlink="http://www.w3.org/1999/xlink" viewBox="0 0 404.239 404.239" xml:space="preserve">
<g id="SVGRepo_bgCarrier" stroke-width="0"/>
<g id="SVGRepo_tracerCarrier" stroke-linecap="round" stroke-linejoin="round"/>
<g id="SVGRepo_iconCarrier"> <g> <g> <path d="M193.408,152.312h44.856v-25.047h-38.267C196.649,133.507,194.483,141.427,193.408,152.312z"/> <path d="M194.918,127.265h-19.502c-3.041,7.767-4.772,16.195-4.772,25.042l18.222-0.215 C189.87,141.658,191.892,133.691,194.918,127.265z"/> <path d="M242.811,127.265v25.042h42.624c-1.07-10.885-3.241-18.806-6.589-25.042H242.811z"/> <path d="M342.927,241.503c5.386,0,9.754-4.367,9.754-9.754s-9.754-27.93-9.754-27.93s-9.754,22.543-9.754,27.93 S337.541,241.503,342.927,241.503z"/> <path d="M180.746,116.554h21.268h6.456h29.798h4.547h27.561h6.456h21.263h10.89c0.2-3.405,0.338-6.892,0.338-10.557 c0-37.284-24.1-68.275-55.951-74.952c0.067-0.456,0.164-0.906,0.164-1.377c0-6.175-5.821-11.177-13-11.177 c-7.178,0-13,5.002-13,11.177c0,0.471,0.097,0.922,0.164,1.377c-31.846,6.677-55.951,37.668-55.951,74.952 c0,3.666,0.138,7.158,0.338,10.557H180.746z"/> <path d="M308.204,152.312c0-8.847-1.731-17.275-4.772-25.042H283.93c3.026,6.426,5.043,14.387,6.052,24.827L308.204,152.312z"/> <path d="M239.421,277.686c5.386,0,9.754-4.367,9.754-9.754s-9.754-27.93-9.754-27.93s-9.754,22.543-9.754,27.93 S234.035,277.686,239.421,277.686z"/> <path d="M307.533,263.785c5.386,0,9.754-4.367,9.754-9.754s-9.754-27.93-9.754-27.93s-9.754,22.543-9.754,27.93 S302.147,263.785,307.533,263.785z"/> <path d="M95.913,342.694c0,11.991,9.759,21.745,21.745,21.745h243.528c11.991,0,21.745-9.754,21.745-21.745v-46.341H95.913 V342.694z"/> <path d="M364.339,183.258c-4.797-13.097-17.229-22.513-31.995-22.513H146.499c-14.771,0-27.208,9.426-32.005,22.538 c-38.205,1.951-39.89,37.873-39.89,37.873H40.899C18.314,221.156,0,239.465,0,262.054v36.5c0,22.584,18.309,40.899,40.899,40.899 h33.705v3.241c0,23.777,19.277,43.054,43.054,43.054h243.528c23.777,0,43.054-19.277,43.054-43.054V226.153 C404.239,203.441,386.637,184.881,364.339,183.258z M74.603,325.819H40.899c-15.032,0-27.264-12.232-27.264-27.264v-36.5 c0-15.032,12.232-27.264,27.264-27.264h33.705V325.819z M395.151,342.694c0,18.729-15.237,33.966-33.966,33.966H117.658 c-18.729,0-33.966-15.237-33.966-33.966V226.153c0-18.729,15.237-33.966,33.966-33.966h243.528 c18.729,0,33.966,15.237,33.966,33.966V342.694z"/> <path d="M157.015,244.938c5.386,0,9.754-4.367,9.754-9.754s-9.754-27.93-9.754-27.93s-9.754,22.543-9.754,27.93 S151.629,244.938,157.015,244.938z"/> <path d="M269.727,233.004c5.386,0,9.754-4.367,9.754-9.754s-9.754-27.93-9.754-27.93s-9.754,22.543-9.754,27.93 C259.968,228.636,264.335,233.004,269.727,233.004z"/> <path d="M197.243,258.844c5.386,0,9.754-4.367,9.754-9.754s-9.754-27.93-9.754-27.93s-9.754,22.543-9.754,27.93 S191.851,258.844,197.243,258.844z"/> </g> </g> </g>
</svg>