<!DOCTYPE svg PUBLIC "-//W3C//DTD SVG 1.1//EN" "http://www.w3.org/Graphics/SVG/1.1/DTD/svg11.dtd">
<!-- Uploaded to: SVG Repo, www.svgrepo.com, Transformed by: SVG Repo Mixer Tools -->
<svg width="800px" height="800px" viewBox="0 0 24 24" id="Layer_1" data-name="Layer 1" xmlns="http://www.w3.org/2000/svg" fill="#8d734b">
<g id="SVGRepo_bgCarrier" stroke-width="0"/>
<g id="SVGRepo_tracerCarrier" stroke-linecap="round" stroke-linejoin="round"/>
<g id="SVGRepo_iconCarrier">
<defs>
<style>.cls-1{fill:none;stroke:#8d734b;stroke-miterlimit:10;stroke-width:1.91px;}</style>
</defs>
<rect class="cls-1" x="4.36" y="1.5" width="15.27" height="21"/>
<path class="cls-1" d="M11,5.32H13a2.86,2.86,0,0,1,2.86,2.86v1a0,0,0,0,1,0,0H8.18a0,0,0,0,1,0,0v-1A2.86,2.86,0,0,1,11,5.32Z"/>
<line class="cls-1" x1="12" y1="1.5" x2="12" y2="5.32"/>
<line class="cls-1" x1="11.05" y1="12" x2="12.95" y2="12"/>
<line class="cls-1" x1="14.86" y1="12" x2="16.77" y2="12"/>
<line class="cls-1" x1="9.14" y1="14.86" x2="11.05" y2="14.86"/>
<line class="cls-1" x1="12.95" y1="14.86" x2="14.86" y2="14.86"/>
<line class="cls-1" x1="7.23" y1="12" x2="9.14" y2="12"/>
<line class="cls-1" x1="0.55" y1="22.5" x2="23.45" y2="22.5"/>
<line class="cls-1" x1="19.64" y1="6.27" x2="22.5" y2="6.27"/>
<line class="cls-1" x1="19.64" y1="17.73" x2="22.5" y2="17.73"/>
</g>
</svg>