<!DOCTYPE svg PUBLIC "-//W3C//DTD SVG 1.1//EN" "http://www.w3.org/Graphics/SVG/1.1/DTD/svg11.dtd">
<!-- Uploaded to: SVG Repo, www.svgrepo.com, Transformed by: SVG Repo Mixer Tools -->
<svg version="1.1" id="Layer_1" xmlns:x="&amp;ns_extend;" xmlns:i="&amp;ns_ai;" xmlns:graph="&amp;ns_graphs;" xmlns="http://www.w3.org/2000/svg" xmlns:xlink="http://www.w3.org/1999/xlink" width="800px" height="800px" viewBox="0 0 24 24" enable-background="new 0 0 24 24" xml:space="preserve" fill="#8d734b">
<g id="SVGRepo_bgCarrier" stroke-width="0"/>
<g id="SVGRepo_tracerCarrier" stroke-linecap="round" stroke-linejoin="round"/>
<g id="SVGRepo_iconCarrier"> <metadata> <sfw> <slices> </slices> <slicesourcebounds width="505" height="984" bottomleftorigin="true" x="0" y="-552"> </slicesourcebounds> </sfw> </metadata> <g> <g> <g> <path d="M6,24c-1.7,0-3-1.3-3-3c0-0.6,0.4-1,1-1s1,0.4,1,1c0,0.6,0.4,1,1,1c0.6,0,1,0.4,1,1S6.6,24,6,24z"/> </g> </g> <g> <g> <path d="M18,24c-0.6,0-1-0.4-1-1s0.4-1,1-1c0.6,0,1-0.4,1-1c0-0.6,0.4-1,1-1s1,0.4,1,1C21,22.7,19.7,24,18,24z"/> </g> </g> <g> <g> <path d="M4,14c-0.6,0-1-0.4-1-1c0-2.8,2.2-5,5-5c0.6,0,1,0.4,1,1s-0.4,1-1,1c-1.7,0-3,1.3-3,3C5,13.6,4.6,14,4,14z"/> </g> </g> <g> <g> <path d="M20,14c-0.6,0-1-0.4-1-1c0-1.7-1.3-3-3-3c-0.6,0-1-0.4-1-1s0.4-1,1-1c2.8,0,5,2.2,5,5C21,13.6,20.6,14,20,14z"/> </g> </g> <g> <g> <path d="M16,10H8c-0.6,0-1-0.4-1-1s0.4-1,1-1h8c0.6,0,1,0.4,1,1S16.6,10,16,10z"/> </g> </g> <g> <g> <path d="M16,24H8c-0.6,0-1-0.4-1-1s0.4-1,1-1h8c0.6,0,1,0.4,1,1S16.6,24,16,24z"/> </g> </g> <g> <g> <path d="M20,22c-0.6,0-1-0.4-1-1v-8c0-0.6,0.4-1,1-1s1,0.4,1,1v8C21,21.6,20.6,22,20,22z"/> </g> </g> <g> <g> <path d="M4,22c-0.6,0-1-0.4-1-1v-8c0-0.6,0.4-1,1-1s1,0.4,1,1v8C5,21.6,4.6,22,4,22z"/> </g> </g> <g> <g> <path d="M18,24H6c-0.6,0-1-0.4-1-1s0.4-1,1-1h12c0.6,0,1,0.4,1,1S18.6,24,18,24z"/> </g> </g> <g> <g> <path d="M15,10H9c-0.6,0-1-0.4-1-1V5c0-0.6,0.4-1,1-1h6c0.6,0,1,0.4,1,1v4C16,9.6,15.6,10,15,10z M10,8h4V6h-4V8z"/> </g> </g> <g> <g> <path d="M13,6h-2c-0.6,0-1-0.4-1-1V1c0-0.6,0.4-1,1-1h2c0.6,0,1,0.4,1,1v4C14,5.6,13.6,6,13,6z"/> </g> </g> <g> <g> <path d="M20,19H4c-0.6,0-1-0.4-1-1v-4c0-0.6,0.4-1,1-1h16c0.6,0,1,0.4,1,1v4C21,18.6,20.6,19,20,19z M5,17h14v-2H5V17z"/> </g> </g> <g> <g> <path stroke="#8d734b" stroke-width="2" stroke-linecap="round" stroke-linejoin="round" stroke-miterlimit="10" d="M12,2"/> </g> </g> <g> <g> <path stroke="#8d734b" stroke-width="2" stroke-linecap="round" stroke-linejoin="round" stroke-miterlimit="10" d="M12,2"/> </g> </g> <g> <g> <path d="M18,3h-6c-0.6,0-1-0.4-1-1s0.4-1,1-1h6c0.6,0,1,0.4,1,1S18.6,3,18,3z"/> </g> </g> </g> </g>
</svg>